G04 Layer: TopSilkscreenLayer*
G04 EasyEDA v6.5.57, 2026-08-18 13:42:33*
G04 308011b85a2f43818307bacb11288fe7,e19a77d54f684c31816133f074f03367,10*
G04 Gerber Generator version 0.2*
G04 Scale: 100 percent, Rotated: No, Reflected: No *
G04 Dimensions in millimeters *
G04 leading zeros omitted , absolute positions ,4 integer and 5 decimal *
%FSLAX45Y45*%
%MOMM*%

%ADD10C,0.1524*%
%ADD11C,0.2540*%
%ADD12C,0.0180*%

%LPD*%
D10*
X5601208Y-2694178D02*
G01*
X5611622Y-2688844D01*
X5622036Y-2678429D01*
X5627115Y-2668270D01*
X5627115Y-2647442D01*
X5622036Y-2637028D01*
X5611622Y-2626613D01*
X5601208Y-2621279D01*
X5585459Y-2616200D01*
X5559552Y-2616200D01*
X5544058Y-2621279D01*
X5533643Y-2626613D01*
X5523229Y-2637028D01*
X5518150Y-2647442D01*
X5518150Y-2668270D01*
X5523229Y-2678429D01*
X5533643Y-2688844D01*
X5544058Y-2694178D01*
X5606288Y-2728468D02*
G01*
X5611622Y-2738881D01*
X5627115Y-2754376D01*
X5518150Y-2754376D01*
X2284349Y-1308988D02*
G01*
X2284349Y-1200022D01*
X2284349Y-1200022D02*
G01*
X2222118Y-1200022D01*
X2187829Y-1308988D02*
G01*
X2187829Y-1200022D01*
X2187829Y-1308988D02*
G01*
X2120265Y-1308988D01*
X2187829Y-1257172D02*
G01*
X2146172Y-1257172D01*
X2187829Y-1200022D02*
G01*
X2120265Y-1200022D01*
X2085975Y-1308988D02*
G01*
X2085975Y-1200022D01*
X2085975Y-1308988D02*
G01*
X2049399Y-1308988D01*
X2033904Y-1303909D01*
X2023490Y-1293495D01*
X2018411Y-1283080D01*
X2013077Y-1267332D01*
X2013077Y-1241425D01*
X2018411Y-1225930D01*
X2023490Y-1215517D01*
X2033904Y-1205103D01*
X2049399Y-1200022D01*
X2085975Y-1200022D01*
X1978786Y-1288161D02*
G01*
X1968372Y-1293495D01*
X1952879Y-1308988D01*
X1952879Y-1200022D01*
X5296915Y-2616200D02*
G01*
X5187950Y-2616200D01*
X5296915Y-2616200D02*
G01*
X5296915Y-2662936D01*
X5291836Y-2678429D01*
X5286502Y-2683763D01*
X5276088Y-2688844D01*
X5265674Y-2688844D01*
X5255259Y-2683763D01*
X5250179Y-2678429D01*
X5245100Y-2662936D01*
X5245100Y-2616200D01*
X5245100Y-2652521D02*
G01*
X5187950Y-2688844D01*
X5276088Y-2723134D02*
G01*
X5281422Y-2733547D01*
X5296915Y-2749295D01*
X5187950Y-2749295D01*
X5795159Y-2849796D02*
G01*
X5795159Y-2771818D01*
X5790079Y-2756324D01*
X5779665Y-2745910D01*
X5763917Y-2740830D01*
X5753503Y-2740830D01*
X5738009Y-2745910D01*
X5727595Y-2756324D01*
X5722515Y-2771818D01*
X5722515Y-2849796D01*
X5688225Y-2828968D02*
G01*
X5677811Y-2834302D01*
X5662063Y-2849796D01*
X5662063Y-2740830D01*
X5993384Y-2552700D02*
G01*
X6071361Y-2552700D01*
X6086856Y-2547620D01*
X6097270Y-2537205D01*
X6102350Y-2521457D01*
X6102350Y-2511044D01*
X6097270Y-2495550D01*
X6086856Y-2485136D01*
X6071361Y-2480055D01*
X5993384Y-2480055D01*
X5993384Y-2435352D02*
G01*
X5993384Y-2378202D01*
X6035040Y-2409189D01*
X6035040Y-2393695D01*
X6040120Y-2383281D01*
X6045200Y-2378202D01*
X6060947Y-2372868D01*
X6071361Y-2372868D01*
X6086856Y-2378202D01*
X6097270Y-2388615D01*
X6102350Y-2404110D01*
X6102350Y-2419604D01*
X6097270Y-2435352D01*
X6092190Y-2440431D01*
X6081775Y-2445765D01*
D11*
X5339242Y-2588181D02*
G01*
X5339242Y-2508183D01*
X5339196Y-2644226D02*
G01*
X5339196Y-2724223D01*
X5481210Y-2588181D02*
G01*
X5481210Y-2508183D01*
X5481162Y-2644226D02*
G01*
X5481162Y-2724223D01*
X5370225Y-2477208D02*
G01*
X5450230Y-2477208D01*
X5450177Y-2755201D02*
G01*
X5370174Y-2755201D01*
X2240600Y-1116799D02*
G01*
X2280599Y-1076799D01*
X2290599Y-1066800D01*
X2280599Y-1056774D01*
X2240600Y-1016774D01*
X2240600Y-1116799D02*
G01*
X2240600Y-1016774D01*
X2216277Y-965072D02*
G01*
X2061336Y-965072D01*
X2061336Y-1168272D01*
X2216277Y-1168272D01*
X2295016Y-962532D02*
G01*
X2442336Y-962532D01*
X2482977Y-1003172D01*
X2482977Y-1130172D01*
X2444877Y-1168272D01*
X2292477Y-1168272D01*
D10*
X5013939Y-2658821D02*
G01*
X5013939Y-2754708D01*
X5146060Y-2754708D01*
X5146060Y-2658821D01*
X5013939Y-2573578D02*
G01*
X5013939Y-2477691D01*
X5146060Y-2477691D01*
X5146060Y-2573578D01*
D11*
X5653087Y-2517693D02*
G01*
X5653087Y-2503505D01*
X5720580Y-2703507D02*
G01*
X5653087Y-2703507D01*
X5653087Y-2689311D01*
X5853087Y-2689311D02*
G01*
X5853087Y-2703507D01*
X5785589Y-2703507D01*
X5853087Y-2503505D02*
G01*
X5853087Y-2517693D01*
X5785589Y-2503505D02*
G01*
X5853087Y-2503505D01*
X5653087Y-2503505D02*
G01*
X5720580Y-2503505D01*
G75*
G01*
X5481163Y-2724219D02*
G02*
X5450177Y-2755201I-30983J0D01*
G75*
G01*
X5370180Y-2755201D02*
G02*
X5339197Y-2724219I0J30982D01*
G75*
G01*
X5339243Y-2508189D02*
G02*
X5370225Y-2477209I30982J-3D01*
G75*
G01*
X5450223Y-2477209D02*
G02*
X5481211Y-2508189I5J-30983D01*
G75*
G01
X5886450Y-2654275D02*
G03X5886450Y-2654275I-6350J0D01*
M02*
